<mxfile host="app.diagrams.net" modified="2023-01-10T08:26:18.936Z" agent="5.0 (Windows NT 10.0; Win64; x64) AppleWebKit/537.36 (KHTML, like Gecko) Chrome/108.0.0.0 Safari/537.36" etag="y-Hqr8xOPDAjo4_BfPnb" version="20.8.3" type="github">
  <diagram id="C5RBs43oDa-KdzZeNtuy" name="Page-1">
    <mxGraphModel dx="1195" dy="590" grid="1" gridSize="10" guides="1" tooltips="1" connect="1" arrows="1" fold="1" page="1" pageScale="1" pageWidth="827" pageHeight="1169" math="0" shadow="0">
      <root>
        <mxCell id="WIyWlLk6GJQsqaUBKTNV-0" />
        <mxCell id="WIyWlLk6GJQsqaUBKTNV-1" parent="WIyWlLk6GJQsqaUBKTNV-0" />
        <mxCell id="-oRN_M9U93r0ZZTVoQ5B-0" value="WhenExpUtil&#xa;" style="swimlane;fontStyle=1;align=center;verticalAlign=top;childLayout=stackLayout;horizontal=1;startSize=26;horizontalStack=0;resizeParent=1;resizeParentMax=0;resizeLast=0;collapsible=1;marginBottom=0;" vertex="1" parent="WIyWlLk6GJQsqaUBKTNV-1">
          <mxGeometry x="280" y="120" width="230" height="90" as="geometry" />
        </mxCell>
        <mxCell id="-oRN_M9U93r0ZZTVoQ5B-1" value="+ field: type" style="text;strokeColor=none;fillColor=none;align=left;verticalAlign=top;spacingLeft=4;spacingRight=4;overflow=hidden;rotatable=0;points=[[0,0.5],[1,0.5]];portConstraint=eastwest;" vertex="1" parent="-oRN_M9U93r0ZZTVoQ5B-0">
          <mxGeometry y="26" width="230" height="26" as="geometry" />
        </mxCell>
        <mxCell id="-oRN_M9U93r0ZZTVoQ5B-2" value="" style="line;strokeWidth=1;fillColor=none;align=left;verticalAlign=middle;spacingTop=-1;spacingLeft=3;spacingRight=3;rotatable=0;labelPosition=right;points=[];portConstraint=eastwest;strokeColor=inherit;" vertex="1" parent="-oRN_M9U93r0ZZTVoQ5B-0">
          <mxGeometry y="52" width="230" height="38" as="geometry" />
        </mxCell>
        <mxCell id="-oRN_M9U93r0ZZTVoQ5B-5" style="edgeStyle=orthogonalEdgeStyle;rounded=0;orthogonalLoop=1;jettySize=auto;html=1;entryX=0.25;entryY=1;entryDx=0;entryDy=0;" edge="1" parent="WIyWlLk6GJQsqaUBKTNV-1" source="-oRN_M9U93r0ZZTVoQ5B-4" target="-oRN_M9U93r0ZZTVoQ5B-0">
          <mxGeometry relative="1" as="geometry">
            <Array as="points">
              <mxPoint x="170" y="210" />
            </Array>
          </mxGeometry>
        </mxCell>
        <mxCell id="-oRN_M9U93r0ZZTVoQ5B-4" value="formatAbsolute:&lt;br&gt;从绝对时间表达式中提取时间" style="rounded=0;whiteSpace=wrap;html=1;" vertex="1" parent="WIyWlLk6GJQsqaUBKTNV-1">
          <mxGeometry x="30" y="390" width="120" height="60" as="geometry" />
        </mxCell>
        <mxCell id="-oRN_M9U93r0ZZTVoQ5B-8" style="edgeStyle=orthogonalEdgeStyle;rounded=0;orthogonalLoop=1;jettySize=auto;html=1;entryX=0.25;entryY=1;entryDx=0;entryDy=0;" edge="1" parent="WIyWlLk6GJQsqaUBKTNV-1" source="-oRN_M9U93r0ZZTVoQ5B-7" target="-oRN_M9U93r0ZZTVoQ5B-0">
          <mxGeometry relative="1" as="geometry" />
        </mxCell>
        <mxCell id="-oRN_M9U93r0ZZTVoQ5B-7" value="formatAbsolute&lt;br&gt;获得处理后的相对时间&lt;br&gt;" style="whiteSpace=wrap;html=1;verticalAlign=top;fontStyle=1;startSize=26;" vertex="1" parent="WIyWlLk6GJQsqaUBKTNV-1">
          <mxGeometry x="180" y="410" width="120" height="60" as="geometry" />
        </mxCell>
        <mxCell id="-oRN_M9U93r0ZZTVoQ5B-10" style="edgeStyle=orthogonalEdgeStyle;rounded=0;orthogonalLoop=1;jettySize=auto;html=1;" edge="1" parent="WIyWlLk6GJQsqaUBKTNV-1" source="-oRN_M9U93r0ZZTVoQ5B-9">
          <mxGeometry relative="1" as="geometry">
            <mxPoint x="390" y="210" as="targetPoint" />
            <Array as="points">
              <mxPoint x="390" y="350" />
              <mxPoint x="390" y="350" />
            </Array>
          </mxGeometry>
        </mxCell>
        <mxCell id="-oRN_M9U93r0ZZTVoQ5B-33" style="edgeStyle=orthogonalEdgeStyle;rounded=0;orthogonalLoop=1;jettySize=auto;html=1;entryX=1;entryY=0.5;entryDx=0;entryDy=0;dashed=1;" edge="1" parent="WIyWlLk6GJQsqaUBKTNV-1" source="-oRN_M9U93r0ZZTVoQ5B-9" target="-oRN_M9U93r0ZZTVoQ5B-7">
          <mxGeometry relative="1" as="geometry" />
        </mxCell>
        <mxCell id="-oRN_M9U93r0ZZTVoQ5B-34" style="edgeStyle=orthogonalEdgeStyle;rounded=0;orthogonalLoop=1;jettySize=auto;html=1;exitX=0.5;exitY=1;exitDx=0;exitDy=0;dashed=1;entryX=0.41;entryY=1.028;entryDx=0;entryDy=0;entryPerimeter=0;" edge="1" parent="WIyWlLk6GJQsqaUBKTNV-1" source="-oRN_M9U93r0ZZTVoQ5B-9" target="-oRN_M9U93r0ZZTVoQ5B-4">
          <mxGeometry relative="1" as="geometry">
            <mxPoint x="230" y="600" as="targetPoint" />
            <Array as="points">
              <mxPoint x="475" y="540" />
              <mxPoint x="120" y="540" />
              <mxPoint x="120" y="452" />
            </Array>
          </mxGeometry>
        </mxCell>
        <mxCell id="-oRN_M9U93r0ZZTVoQ5B-9" value="resolveTime&amp;nbsp;&lt;br&gt;解析时间" style="whiteSpace=wrap;html=1;" vertex="1" parent="WIyWlLk6GJQsqaUBKTNV-1">
          <mxGeometry x="400" y="400" width="150" height="50" as="geometry" />
        </mxCell>
        <mxCell id="-oRN_M9U93r0ZZTVoQ5B-30" style="edgeStyle=orthogonalEdgeStyle;rounded=0;orthogonalLoop=1;jettySize=auto;html=1;entryX=0.583;entryY=1;entryDx=0;entryDy=0;entryPerimeter=0;dashed=1;" edge="1" parent="WIyWlLk6GJQsqaUBKTNV-1" source="-oRN_M9U93r0ZZTVoQ5B-29" target="-oRN_M9U93r0ZZTVoQ5B-9">
          <mxGeometry relative="1" as="geometry" />
        </mxCell>
        <mxCell id="-oRN_M9U93r0ZZTVoQ5B-29" value="getValueFromExpr&lt;br&gt;获取时间&lt;br&gt;" style="rounded=0;whiteSpace=wrap;html=1;" vertex="1" parent="WIyWlLk6GJQsqaUBKTNV-1">
          <mxGeometry x="480" y="540" width="120" height="50" as="geometry" />
        </mxCell>
        <mxCell id="-oRN_M9U93r0ZZTVoQ5B-32" style="edgeStyle=orthogonalEdgeStyle;rounded=0;orthogonalLoop=1;jettySize=auto;html=1;exitX=0.5;exitY=0;exitDx=0;exitDy=0;entryX=1;entryY=0.75;entryDx=0;entryDy=0;dashed=1;" edge="1" parent="WIyWlLk6GJQsqaUBKTNV-1" source="-oRN_M9U93r0ZZTVoQ5B-31" target="-oRN_M9U93r0ZZTVoQ5B-9">
          <mxGeometry relative="1" as="geometry" />
        </mxCell>
        <mxCell id="-oRN_M9U93r0ZZTVoQ5B-31" value="getUnitFromExpr(String expr)&lt;br&gt;获取单位" style="whiteSpace=wrap;html=1;" vertex="1" parent="WIyWlLk6GJQsqaUBKTNV-1">
          <mxGeometry x="640" y="510" width="120" height="85" as="geometry" />
        </mxCell>
      </root>
    </mxGraphModel>
  </diagram>
</mxfile>
